HIERARCHY
ROOT CG
{
	OFFSET 0.000000 0.000000 27.772259
	CHANNELS 6 Xposition Yposition Zposition Xrotation Yrotation Zrotation
	JOINT Pelvis
	{
		OFFSET 0.000000 0.000000 0.000000
		CHANNELS 3 Xrotation Yrotation Zrotation
		JOINT Spine
		{
			OFFSET -0.000017 -10.490843 -0.495483
			CHANNELS 3 Xrotation Yrotation Zrotation
			JOINT Spine1
			{
				OFFSET -0.000010 -22.678980 0.018061
				CHANNELS 3 Xrotation Yrotation Zrotation
				JOINT Spine2
				{
					OFFSET -0.000010 -22.678967 0.018061
					CHANNELS 3 Xrotation Yrotation Zrotation
					JOINT Spine3
					{
						OFFSET -0.000010 -22.678982 0.018059
						CHANNELS 3 Xrotation Yrotation Zrotation
						JOINT Neck
						{
							OFFSET -0.000012 -22.678986 -1.289251
							CHANNELS 3 Xrotation Yrotation Zrotation
							JOINT Neck1
							{
								OFFSET -0.000007 -16.255905 0.012947
								CHANNELS 3 Xrotation Yrotation Zrotation
								JOINT Head
								{
									OFFSET -0.000005 -10.784607 -0.287502
									CHANNELS 3 Xrotation Yrotation Zrotation
									JOINT Jaw01
									{
										OFFSET 0.000031 7.782959 5.073944
										CHANNELS 3 Xrotation Yrotation Zrotation
										JOINT Jaw02
										{
											OFFSET 0.000004 -34.927139 -18.883980
											CHANNELS 3 Xrotation Yrotation Zrotation
											End Site
											{
												OFFSET -0.000170 8.372803 -38.812450
											}
										}
									}
									JOINT Nose
									{
										OFFSET -0.000002 -25.700912 7.222265
										CHANNELS 3 Xrotation Yrotation Zrotation
										End Site
										{
											OFFSET -0.000090 0.641281 -21.715439
										}
									}
									JOINT L_EyeSocket
									{
										OFFSET 7.352326 -19.832718 14.164183
										CHANNELS 3 Xrotation Yrotation Zrotation
										JOINT L_Eye
										{
											OFFSET -0.000868 -0.001053 0.016003
											CHANNELS 3 Xrotation Yrotation Zrotation
											End Site
											{
												OFFSET -0.001505 -0.001846 0.027969
											}
										}
										JOINT L_Eyelid_Top
										{
											OFFSET -0.001004 -0.002625 0.032516
											CHANNELS 3 Xrotation Yrotation Zrotation
											End Site
											{
												OFFSET -0.013218 0.005753 0.024086
											}
										}
										JOINT L_Eyelid_Bottom
										{
											OFFSET -0.001194 -0.002777 0.035381
											CHANNELS 3 Xrotation Yrotation Zrotation
											End Site
											{
												OFFSET -0.010032 0.008636 -0.024754
											}
										}
									}
									JOINT R_EyeSocket
									{
										OFFSET -7.352252 -19.832748 14.164206
										CHANNELS 3 Xrotation Yrotation Zrotation
										JOINT R_Eye
										{
											OFFSET 0.000875 -0.001068 0.015991
											CHANNELS 3 Xrotation Yrotation Zrotation
											End Site
											{
												OFFSET 0.001505 -0.001846 0.027962
											}
										}
										JOINT R_Eyelid_Top
										{
											OFFSET 0.001021 -0.002625 0.032516
											CHANNELS 3 Xrotation Yrotation Zrotation
											End Site
											{
												OFFSET 0.013214 0.005753 0.024078
											}
										}
										JOINT R_Eyelid_Bottom
										{
											OFFSET 0.001170 -0.002762 0.035366
											CHANNELS 3 Xrotation Yrotation Zrotation
											End Site
											{
												OFFSET 0.010029 0.008636 -0.024746
											}
										}
									}
								}
								JOINT Neck_Fat
								{
									OFFSET 0.000044 -9.595100 -17.491512
									CHANNELS 3 Xrotation Yrotation Zrotation
									End Site
									{
										OFFSET -0.000036 15.369423 -0.000007
									}
								}
							}
						}
						JOINT L_Clavicle
						{
							OFFSET 4.567107 -11.666092 -3.750029
							CHANNELS 3 Xrotation Yrotation Zrotation
							JOINT L_UpperArm
							{
								OFFSET 20.725666 -0.000053 -0.000032
								CHANNELS 3 Xrotation Yrotation Zrotation
								JOINT L_Forearm
								{
									OFFSET 5.265112 -0.585754 -20.155697
									CHANNELS 3 Xrotation Yrotation Zrotation
									JOINT L_Hand
									{
										OFFSET 2.653017 -10.877708 -16.383667
										CHANNELS 3 Xrotation Yrotation Zrotation
										JOINT L_Finger0
										{
											OFFSET -4.206146 -4.328911 -5.034346
											CHANNELS 3 Xrotation Yrotation Zrotation
											JOINT L_Finger01
											{
												OFFSET 0.084272 -1.788536 -4.181065
												CHANNELS 3 Xrotation Yrotation Zrotation
												End Site
												{
													OFFSET 3.261885 3.094673 -0.685818
												}
											}
										}
										JOINT L_Finger1
										{
											OFFSET -1.039112 -6.775742 -3.499998
											CHANNELS 3 Xrotation Yrotation Zrotation
											JOINT L_Finger11
											{
												OFFSET 1.320335 -3.040672 -6.425793
												CHANNELS 3 Xrotation Yrotation Zrotation
												End Site
												{
													OFFSET -1.244579 6.832077 -2.013330
												}
											}
										}
										JOINT L_Finger2
										{
											OFFSET 2.531296 -5.656487 -3.286415
											CHANNELS 3 Xrotation Yrotation Zrotation
											JOINT L_Finger21
											{
												OFFSET 1.991665 -2.402016 -5.957748
												CHANNELS 3 Xrotation Yrotation Zrotation
												End Site
												{
													OFFSET -2.793068 5.800873 -1.944178
												}
											}
										}
										JOINT L_Finger3
										{
											OFFSET 5.474075 -3.302338 -2.655975
											CHANNELS 3 Xrotation Yrotation Zrotation
											JOINT L_Finger31
											{
												OFFSET 2.026943 -1.267532 -5.961166
												CHANNELS 3 Xrotation Yrotation Zrotation
												End Site
												{
													OFFSET -4.375172 4.343658 -1.800320
												}
											}
										}
										JOINT L_Finger4
										{
											OFFSET 4.825745 1.085899 -2.321970
											CHANNELS 3 Xrotation Yrotation Zrotation
											JOINT L_Finger41
											{
												OFFSET 3.358261 -1.829651 -3.744434
												CHANNELS 3 Xrotation Yrotation Zrotation
												End Site
												{
													OFFSET -3.843296 2.955200 -2.267633
												}
											}
										}
									}
								}
							}
						}
						JOINT R_Clavicle
						{
							OFFSET -4.567111 -11.666092 -3.750036
							CHANNELS 3 Xrotation Yrotation Zrotation
							JOINT R_UpperArm
							{
								OFFSET -20.725670 -0.000031 0.000038
								CHANNELS 3 Xrotation Yrotation Zrotation
								JOINT R_Forearm
								{
									OFFSET -5.265285 -0.585762 -20.155655
									CHANNELS 3 Xrotation Yrotation Zrotation
									JOINT R_Hand
									{
										OFFSET -2.653147 -10.877739 -16.383663
										CHANNELS 3 Xrotation Yrotation Zrotation
										JOINT R_Finger0
										{
											OFFSET 4.206116 -4.328888 -5.034388
											CHANNELS 3 Xrotation Yrotation Zrotation
											JOINT R_Finger01
											{
												OFFSET -0.084324 -1.788544 -4.181051
												CHANNELS 3 Xrotation Yrotation Zrotation
												End Site
												{
													OFFSET -3.261890 3.094666 -0.685791
												}
											}
										}
										JOINT R_Finger1
										{
											OFFSET 1.039101 -6.775711 -3.499994
											CHANNELS 3 Xrotation Yrotation Zrotation
											JOINT R_Finger11
											{
												OFFSET -1.320374 -3.040672 -6.425779
												CHANNELS 3 Xrotation Yrotation Zrotation
												End Site
												{
													OFFSET 1.244556 6.832077 -2.013342
												}
											}
										}
										JOINT R_Finger2
										{
											OFFSET -2.531307 -5.656464 -3.286409
											CHANNELS 3 Xrotation Yrotation Zrotation
											JOINT R_Finger21
											{
												OFFSET -1.991707 -2.402016 -5.957708
												CHANNELS 3 Xrotation Yrotation Zrotation
												End Site
												{
													OFFSET 2.793037 5.800858 -1.944197
												}
											}
										}
										JOINT R_Finger3
										{
											OFFSET -5.474091 -3.302330 -2.655947
											CHANNELS 3 Xrotation Yrotation Zrotation
											JOINT R_Finger31
											{
												OFFSET -2.026993 -1.267532 -5.961157
												CHANNELS 3 Xrotation Yrotation Zrotation
												End Site
												{
													OFFSET 4.375156 4.343674 -1.800358
												}
											}
										}
										JOINT R_Finger4
										{
											OFFSET -4.825756 1.085922 -2.321926
											CHANNELS 3 Xrotation Yrotation Zrotation
											JOINT R_Finger41
											{
												OFFSET -3.358307 -1.829651 -3.744390
												CHANNELS 3 Xrotation Yrotation Zrotation
												End Site
												{
													OFFSET 3.843273 2.955208 -2.267666
												}
											}
										}
									}
								}
							}
						}
					}
				}
			}
		}
		JOINT Tail01
		{
			OFFSET -0.000010 10.922326 -0.017508
			CHANNELS 3 Xrotation Yrotation Zrotation
			JOINT Tail02
			{
				OFFSET -0.000022 21.986111 0.000013
				CHANNELS 3 Xrotation Yrotation Zrotation
				JOINT Tail03
				{
					OFFSET -0.000022 21.986118 0.000002
					CHANNELS 3 Xrotation Yrotation Zrotation
					JOINT Tail04
					{
						OFFSET -0.000022 21.986122 0.000004
						CHANNELS 3 Xrotation Yrotation Zrotation
						JOINT Tail05
						{
							OFFSET -0.000022 21.986099 0.000010
							CHANNELS 3 Xrotation Yrotation Zrotation
							JOINT Tail06
							{
								OFFSET -0.000022 21.986099 0.000006
								CHANNELS 3 Xrotation Yrotation Zrotation
								JOINT Tail07
								{
									OFFSET -0.000022 21.986099 0.000000
									CHANNELS 3 Xrotation Yrotation Zrotation
									JOINT Tail08
									{
										OFFSET -0.000022 21.984848 0.000050
										CHANNELS 3 Xrotation Yrotation Zrotation
										JOINT Tail09
										{
											OFFSET -0.000025 21.926025 -1.606211
											CHANNELS 3 Xrotation Yrotation Zrotation
											JOINT Tail10
											{
												OFFSET -0.000027 21.750092 -3.203882
												CHANNELS 3 Xrotation Yrotation Zrotation
												End Site
												{
													OFFSET -0.000036 4.767395 21.461668
												}
											}
										}
									}
								}
							}
						}
					}
				}
			}
		}
		JOINT L_Thigh
		{
			OFFSET 24.788780 0.000021 -0.000034
			CHANNELS 3 Xrotation Yrotation Zrotation
			JOINT L_Calf
			{
				OFFSET 4.720837 4.161326 -21.049969
				CHANNELS 3 Xrotation Yrotation Zrotation
				JOINT L_Foot
				{
					OFFSET 2.154160 21.114433 -11.949743
					CHANNELS 3 Xrotation Yrotation Zrotation
					JOINT L_Toe0
					{
						OFFSET 4.557564 9.251841 -8.735286
						CHANNELS 3 Xrotation Yrotation Zrotation
						End Site
						{
							OFFSET 4.555542 -12.646044 1.018752
						}
					}
					JOINT L_Toe1
					{
						OFFSET 2.346291 5.845602 -11.687160
						CHANNELS 3 Xrotation Yrotation Zrotation
						End Site
						{
							OFFSET 5.347954 -12.298279 1.365644
						}
					}
					JOINT L_Toe2
					{
						OFFSET -0.356020 3.902458 -12.541145
						CHANNELS 3 Xrotation Yrotation Zrotation
						End Site
						{
							OFFSET 3.916235 -12.806129 1.542549
						}
					}
					JOINT L_Toe3
					{
						OFFSET -4.603447 3.183935 -12.435249
						CHANNELS 3 Xrotation Yrotation Zrotation
						End Site
						{
							OFFSET 3.810858 -12.587427 2.957583
						}
					}
					JOINT L_Toe4
					{
						OFFSET -7.144358 6.231495 -10.072764
						CHANNELS 3 Xrotation Yrotation Zrotation
						End Site
						{
							OFFSET 3.810858 -12.587425 2.957585
						}
					}
				}
			}
		}
		JOINT R_Thigh
		{
			OFFSET -24.788780 -0.000024 0.000034
			CHANNELS 3 Xrotation Yrotation Zrotation
			JOINT R_Calf
			{
				OFFSET -4.720922 4.161324 -21.049952
				CHANNELS 3 Xrotation Yrotation Zrotation
				JOINT R_Foot
				{
					OFFSET -2.154238 21.114414 -11.949730
					CHANNELS 3 Xrotation Yrotation Zrotation
					JOINT R_Toe0
					{
						OFFSET -4.557598 9.251823 -8.735270
						CHANNELS 3 Xrotation Yrotation Zrotation
						End Site
						{
							OFFSET -4.555508 -12.646051 1.018756
						}
					}
					JOINT R_Toe1
					{
						OFFSET -2.346325 5.845589 -11.687157
						CHANNELS 3 Xrotation Yrotation Zrotation
						End Site
						{
							OFFSET -5.347919 -12.298286 1.365654
						}
					}
					JOINT R_Toe2
					{
						OFFSET 0.355980 3.902462 -12.541145
						CHANNELS 3 Xrotation Yrotation Zrotation
						End Site
						{
							OFFSET -3.916199 -12.806131 1.542559
						}
					}
					JOINT R_Toe3
					{
						OFFSET 4.603411 3.183941 -12.435266
						CHANNELS 3 Xrotation Yrotation Zrotation
						End Site
						{
							OFFSET -3.810825 -12.587429 2.957591
						}
					}
					JOINT R_Toe4
					{
						OFFSET 7.144323 6.231503 -10.072779
						CHANNELS 3 Xrotation Yrotation Zrotation
						End Site
						{
							OFFSET -3.810825 -12.587433 2.957584
						}
					}
				}
			}
		}
	}
}
MOTION
Frames: 4
Frame Time: 0.033333
-11.992709 0.000001 36.000000 -0.000000 0.000000 -0.000051 -4.965788 -0.000093 -13.448442 3.760814 3.907981 3.660447 5.513267 4.055060 4.656370 5.211026 3.584386 5.546237 5.966770 3.164057 8.208944 -0.040918 0.161840 3.129919 -3.257142 -3.157411 2.739343 18.358164 -10.142237 3.663435 -17.253309 -0.000022 0.000026 0.000021 -0.000001 0.000000 0.000023 -0.000001 0.000000 -0.000004 0.000007 -0.000017 0.000129 -0.000079 0.000017 0.000006 0.000000 0.000002 0.000005 0.000003 0.000007 0.000003 -0.000000 -0.000002 0.000126 0.000080 -0.000018 0.000000 -0.000004 0.000002 -0.000015 0.000003 -0.000003 0.000001 0.000007 0.000001 0.000118 18.447077 11.357172 72.416323 -26.409357 38.256911 -6.349069 1.086923 -1.632822 0.895850 0.694667 -14.742241 6.824831 7.695879 -4.440344 -4.444516 8.285169 -5.013902 -10.853629 -2.177418 -1.347521 -10.852524 -2.185248 -1.344259 -9.882280 -4.989599 -1.640993 -9.879542 -4.995635 -1.646104 -7.741106 -7.969431 -1.421243 -7.740933 -7.966633 -1.424962 -6.435313 -9.017294 -1.707981 -6.438532 -9.013131 -1.707618 -0.002187 -13.387183 -10.696991 70.540288 12.851160 10.205078 -15.854913 -3.046119 3.842404 22.704838 2.712589 35.661155 17.515511 3.434494 0.023306 8.946386 5.631610 -0.729725 8.825508 -1.941722 -0.778229 8.824667 -1.946059 -0.776827 7.977468 -4.240187 -0.698365 7.978820 -4.238640 -0.694378 6.211468 -6.599112 -0.370430 6.213820 -6.597696 -0.363340 5.105932 -7.458197 -0.638728 5.100362 -7.461085 -0.645552 -2.924140 -0.689343 -2.318905 -2.894388 -0.814246 1.069727 -5.217626 -1.350730 -5.718549 -5.054871 -1.859966 -4.628139 -4.892708 -2.246474 -0.268216 -4.883735 -2.258913 3.368103 -2.798756 -1.095875 6.061673 -2.895975 -0.226106 7.819927 -3.262006 1.324193 11.841518 -3.816655 3.417199 14.425792 44.599510 1.285324 -5.372891 -2.986107 -0.065805 -0.688011 40.166976 -2.877262 9.155569 0.002506 0.004595 0.001257 0.001441 0.008367 0.000795 0.004206 -0.002123 0.006018 0.002518 0.003431 -0.008417 0.002841 0.003752 -0.001725 24.936034 -0.479595 -8.781895 13.298853 -0.723625 -2.989353 40.016702 -20.160912 -8.268426 14.851881 -6.554682 -4.804979 14.878093 -7.494297 -3.294925 16.253902 -5.326922 -0.855845 16.538436 -4.477031 1.834765 16.254756 -3.122623 5.011278 
-13.865157 0.000002 36.000000 -0.000000 0.000000 -0.000051 -4.966456 -0.084232 -12.656607 3.680033 4.320974 4.554754 5.444313 4.138920 4.853909 5.146755 3.666780 5.761593 6.029812 3.189329 7.737459 -0.038294 0.144336 2.469237 -3.300545 -3.274844 1.870607 18.536070 -11.051648 4.239518 -17.253312 -0.000021 0.000024 0.000018 0.000000 0.000001 0.000023 0.000000 -0.000001 -0.000008 0.000008 -0.000015 0.000132 -0.000080 0.000020 0.000004 0.000001 0.000005 0.000007 0.000005 0.000006 0.000001 0.000000 -0.000000 0.000127 0.000081 -0.000020 -0.000003 -0.000002 -0.000000 -0.000017 0.000003 -0.000004 0.000001 0.000008 0.000001 0.000796 18.352758 11.160443 73.095264 -26.172597 36.698483 -8.478345 1.492365 -2.153963 1.535898 1.114377 -14.830706 7.298324 7.169291 -4.280948 -3.979716 7.759690 -4.861137 -10.138241 -2.041224 -1.246032 -10.136940 -2.049722 -1.243305 -9.227136 -4.665991 -1.508369 -9.223668 -4.676523 -1.511222 -7.224850 -7.445311 -1.291787 -7.222134 -7.449327 -1.297361 -6.003963 -8.425467 -1.562786 -6.002935 -8.426860 -1.562934 -0.004445 -13.542215 -10.992973 69.922381 13.072492 8.487832 -14.279328 -2.695535 3.497954 21.914660 0.509980 35.083605 16.941277 2.880050 0.298166 7.610667 4.370159 -0.046509 6.962252 -1.520484 -0.642946 6.961713 -1.525275 -0.637776 6.294707 -3.335640 -0.596833 6.294741 -3.335664 -0.596826 4.899608 -5.200984 -0.346209 4.899616 -5.200990 -0.346211 4.024768 -5.880324 -0.564189 4.024717 -5.880296 -0.564204 -2.923537 -0.681237 -2.296523 -2.897055 -0.801540 0.896161 -5.225770 -1.301840 -6.096001 -5.076419 -1.782621 -5.309545 -4.931631 -2.142749 -1.293860 -4.934879 -2.133211 2.025842 -2.827688 -1.014967 4.491621 -2.897864 -0.204745 6.194653 -3.259843 1.253144 10.474215 -3.842781 3.237315 13.637908 44.334191 0.702981 -4.707203 -2.576932 -0.058904 -0.593552 41.181003 -1.918639 8.403776 0.000002 -0.000006 -0.000001 -0.000003 -0.000001 -0.000002 0.000404 -0.001351 0.000166 -0.001301 0.004300 -0.001007 -0.001542 0.005118 -0.001203 25.376052 -1.014741 -8.378383 12.784716 -0.682812 -2.877190 38.917086 -19.581842 -8.724877 14.991092 -6.622981 -4.842259 15.018468 -7.569508 -3.316627 16.406898 -5.382888 -0.861004 16.698054 -4.510925 1.863873 16.413397 -3.136555 5.061127 
-15.565919 0.000002 36.000000 -0.000000 0.000000 -0.000051 -4.959118 -0.196206 -11.167682 3.615298 4.708943 5.007627 5.377611 4.133571 5.101271 5.112747 3.652323 5.791438 6.198845 3.102797 6.907028 -0.035742 0.112982 1.861382 -3.348871 -3.458238 0.926768 18.776625 -11.698789 4.804933 -17.253312 -0.000021 0.000023 0.000020 0.000001 -0.000001 0.000021 -0.000001 -0.000000 -0.000006 0.000007 -0.000017 0.000130 -0.000078 0.000015 0.000006 0.000003 0.000001 0.000006 0.000002 0.000007 -0.000000 -0.000000 -0.000002 0.000126 0.000080 -0.000022 0.000002 -0.000004 0.000002 -0.000012 -0.000000 -0.000005 0.000003 0.000008 0.000001 0.001653 18.231539 11.029533 73.995353 -25.773973 34.459739 -10.998075 1.997604 -2.751823 2.268788 1.770354 -14.616501 7.877225 6.523773 -4.079780 -3.399708 7.109065 -4.665157 -9.249206 -1.870365 -1.121398 -9.247605 -1.879472 -1.120164 -8.411672 -4.269572 -1.349607 -8.409617 -4.277625 -1.348711 -6.582657 -6.798072 -1.141866 -6.579494 -6.804553 -1.145474 -5.467350 -7.694795 -1.387895 -5.464280 -7.696407 -1.389607 0.003711 -13.959998 -11.482785 69.358618 13.941070 5.651488 -12.874007 -2.391225 3.183089 20.616977 -3.787644 31.515821 15.929678 1.893698 0.780593 5.782454 2.610216 0.859026 4.382419 -0.943065 -0.426654 4.381155 -0.950600 -0.422863 3.962787 -2.090653 -0.414772 3.962523 -2.090972 -0.418149 3.083715 -3.267997 -0.263305 3.083177 -3.268596 -0.269601 2.535037 -3.693661 -0.393716 2.535749 -3.694715 -0.402848 -2.922948 -0.660846 -2.316369 -2.900905 -0.775153 0.641830 -5.229247 -1.231438 -6.418940 -5.091599 -1.681437 -5.907103 -4.965522 -2.012590 -2.274797 -4.984400 -1.977932 0.665784 -2.856751 -0.919736 2.829304 -2.890450 -0.176726 4.423957 -3.232958 1.171222 8.842983 -3.830692 3.021264 12.546408 43.855955 -0.173382 -3.976687 -2.041878 -0.048877 -0.470119 42.716512 -0.540885 7.559549 0.000002 0.000002 -0.000002 0.000001 -0.000001 -0.000000 -0.000012 -0.000003 -0.000001 -0.001019 0.003375 -0.000792 -0.001921 0.006362 -0.001496 26.100064 -1.729428 -8.139992 11.938360 -0.617834 -2.691809 38.055523 -18.737441 -9.306547 15.398243 -6.822139 -4.952832 15.429578 -7.788799 -3.380209 16.859946 -5.533558 -0.863412 17.162061 -4.625602 1.934226 16.868371 -3.205933 5.215325 
-17.062626 0.000002 36.000000 -0.000000 0.000000 -0.000051 -4.943832 -0.325750 -9.172069 3.574018 5.071337 5.121173 5.315386 4.046036 5.351281 5.105442 3.553166 5.682279 6.433297 2.922752 5.819630 -0.033722 0.073765 1.282197 -3.401922 -3.649542 -0.060424 19.076233 -12.120715 5.335744 -17.253314 -0.000021 0.000025 0.000016 -0.000001 -0.000002 0.000022 -0.000001 0.000001 -0.000006 0.000006 -0.000013 0.000133 -0.000080 0.000016 0.000012 0.000000 0.000000 0.000010 0.000002 0.000007 -0.000004 0.000001 -0.000003 0.000127 0.000081 -0.000020 -0.000001 -0.000001 0.000001 -0.000013 0.000003 -0.000005 0.000003 0.000008 -0.000000 0.002202 18.088964 10.937372 74.987390 -25.335320 31.840979 -13.685154 2.565844 -3.365577 3.302649 2.574940 -14.178841 8.536516 5.792627 -3.848231 -2.732582 6.369118 -4.432353 -8.232486 -1.672884 -0.982096 -8.230608 -1.682362 -0.982548 -7.480227 -3.816236 -1.172257 -7.480079 -3.818453 -1.169859 -5.848623 -6.061996 -0.979854 -5.847314 -6.064802 -0.980869 -4.852477 -6.862147 -1.196714 -4.851757 -6.858708 -1.200127 0.001773 -14.482929 -12.050380 68.914088 15.128710 2.376836 -11.523446 -2.106395 2.873900 18.837916 -8.064333 26.625005 14.753403 0.726040 1.328563 3.890143 0.723148 1.749783 1.661896 -0.346905 -0.169301 1.659970 -0.356174 -0.168672 1.502182 -0.788430 -0.175338 1.502200 -0.788435 -0.175337 1.168942 -1.236103 -0.122741 1.168961 -1.236104 -0.122749 0.962876 -1.397122 -0.171712 0.962859 -1.397106 -0.171717 -2.922666 -0.631657 -2.396210 -2.906569 -0.732883 0.235783 -5.229363 -1.137456 -6.781652 -5.100608 -1.558774 -6.443386 -4.990594 -1.861813 -3.118524 -5.024895 -1.805651 -0.532859 -2.882454 -0.813103 1.229086 -2.874738 -0.140513 2.474019 -3.174526 1.059944 6.746586 -3.769005 2.735478 10.900947 43.176996 -1.194317 -3.137224 -1.392490 -0.035148 -0.320424 44.730151 1.121437 6.671227 0.000001 -0.000007 -0.000001 -0.000004 -0.000001 -0.000000 0.000100 -0.000380 0.000043 -0.000584 0.001927 -0.000454 -0.002038 0.006773 -0.001595 27.064413 -2.561029 -7.910711 10.812140 -0.535652 -2.443743 37.435543 -17.658512 -9.997127 16.039410 -7.137903 -5.126197 16.076913 -8.138686 -3.477949 17.575016 -5.770733 -0.865396 17.894664 -4.804709 2.047644 17.586830 -3.309968 5.460805 
